<svg version="1.1" viewBox="0.0 0.0 594.6010498687664 100.0" fill="none" stroke="none" stroke-linecap="square" stroke-miterlimit="10" xmlns:xlink="http://www.w3.org/1999/xlink" xmlns="http://www.w3.org/2000/svg"><clipPath id="p.0"><path d="m0 0l594.6011 0l0 100.0l-594.6011 0l0 -100.0z" clip-rule="nonzero"/></clipPath><g clip-path="url(#p.0)"><path fill="#000000" fill-opacity="0.0" d="m0 0l594.6011 0l0 100.0l-594.6011 0z" fill-rule="evenodd"/><path fill="#000000" fill-opacity="0.0" d="m-94.69554 -42.48819l782.2048 0l0 180.97638l-782.2048 0z" fill-rule="evenodd"/><path fill="#000000" d="m26.353657 96.246185l-22.53125 -1.734375l0 -1.328125l1.328125 -0.265625q5.2031245 -1.203125 5.2031245 -6.671875l0 -71.328125q0 -2.796875 -0.875 -4.265625q-0.859375 -1.46875 -3.5312495 -2.0l-1.859375 -0.53125l0 -1.34375l23.734375 -5.734375l1.59375 1.203125l-0.53125 18.796875l0 13.46875q4.40625 -3.0625 9.59375 -4.59375q5.203125 -1.53125 10.53125 -1.53125q7.609375 0 13.46875 3.53125q5.874996 3.53125 9.265621 10.9375q3.40625 7.390625 3.40625 18.984375q0 11.609375 -3.796875 19.28125q-3.796875 7.65625 -10.140621 11.53125q-6.328125 3.859375 -13.9375 3.859375q-4.921875 0 -9.921875 -1.34375q-5.0 -1.328125 -8.875 -3.71875l-2.125 4.796875zm14.265625 -4.265625q4.265625 0 7.453125 -2.65625q3.203125 -2.671875 5.0625 -9.140625q1.875 -6.46875 1.875 -17.796875q0 -11.34375 -1.734375 -17.46875q-1.71875 -6.140625 -4.859375 -8.53125q-3.140625 -2.40625 -7.53125 -2.40625q-6.265625 0 -11.59375 3.46875l0 51.203125q2.53125 1.59375 5.1875 2.46875q2.671875 0.859375 6.140625 0.859375zm74.93556 4.53125q-10.140625 0 -17.609375 -4.203125q-7.46875 -4.203125 -11.53125 -11.921875q-4.0625 -7.734375 -4.0625 -18.140625q0 -10.40625 4.328125 -18.0q4.328125 -7.59375 11.859375 -11.71875q7.546875 -4.140625 17.015625 -4.140625q9.453125 0 16.921875 4.0625q7.46875 4.0625 11.796875 11.671875q4.34375 7.59375 4.34375 18.125q0 10.53125 -4.078125 18.203125q-4.0625 7.65625 -11.46875 11.859375q-7.390625 4.203125 -17.515625 4.203125zm0 -2.671875q4.65625 0 7.453125 -2.65625q2.8125 -2.671875 4.078125 -9.46875q1.265625 -6.796875 1.265625 -19.203125q0 -12.53125 -1.265625 -19.328125q-1.265625 -6.796875 -4.078125 -9.46875q-2.796875 -2.671875 -7.453125 -2.671875q-4.671875 0 -7.546875 2.671875q-2.859375 2.671875 -4.125 9.46875q-1.265625 6.796875 -1.265625 19.328125q0 12.40625 1.265625 19.203125q1.265625 6.796875 4.125 9.46875q2.875 2.65625 7.546875 2.65625zm73.46385 2.671875q-10.140625 0 -17.609375 -4.203125q-7.46875 -4.203125 -11.531235 -11.921875q-4.0625 -7.734375 -4.0625 -18.140625q0 -10.40625 4.328125 -18.0q4.3281097 -7.59375 11.85936 -11.71875q7.546875 -4.140625 17.015625 -4.140625q9.453125 0 16.921875 4.0625q7.46875 4.0625 11.796875 11.671875q4.34375 7.59375 4.34375 18.125q0 10.53125 -4.078125 18.203125q-4.0625 7.65625 -11.46875 11.859375q-7.390625 4.203125 -17.515625 4.203125zm0 -2.671875q4.65625 0 7.453125 -2.65625q2.8125 -2.671875 4.078125 -9.46875q1.265625 -6.796875 1.265625 -19.203125q0 -12.53125 -1.265625 -19.328125q-1.265625 -6.796875 -4.078125 -9.46875q-2.796875 -2.671875 -7.453125 -2.671875q-4.671875 0 -7.546875 2.671875q-2.859375 2.671875 -4.125 9.46875q-1.265625 6.796875 -1.265625 19.328125q0 12.40625 1.265625 19.203125q1.265625 6.796875 4.125 9.46875q2.875 2.65625 7.546875 2.65625zm38.661804 0.671875l0 -1.328125l2.0 -0.671875q4.53125 -1.46875 4.53125 -6.53125l0 -71.328125q0 -2.671875 -1.078125 -4.0q-1.0625 -1.34375 -3.71875 -2.140625l-1.734375 -0.390625l0 -1.34375l24.390625 -5.734375l1.609375 1.203125l-0.40625 18.671875l0 65.0625q0 5.328125 4.4062653 6.671875l1.859375 0.53125l0 1.328125l-31.85939 0zm49.45314 0l-23.718765 -33.328125l24.656265 -22.796875q1.734375 -1.609375 2.0625 -3.40625q0.34375 -1.796875 -2.328125 -2.59375l-2.265625 -0.671875l0 -1.328125l19.859375 0l0 1.328125l-3.984375 1.0625q-2.9375 0.9375 -4.75 2.203125q-1.796875 1.265625 -4.328125 3.53125l-14.921875 14.0l23.859375 33.203125q2.125 2.9375 3.984375 4.53125q1.875 1.59375 4.8125 2.671875l0.53125 0.265625l0 1.328125l-23.46875 0zm134.52802 2.0q-7.71875 0 -13.0 -4.390625q-5.265625 -4.40625 -5.265625 -12.671875q0 -6.265625 6.40625 -11.53125q6.40625 -5.265625 20.140625 -7.9375q2.125 -0.40625 4.78125 -0.859375q2.671875 -0.46875 5.609375 -1.015625l0 -10.53125q0 -9.0625 -2.203125 -12.71875q-2.1875 -3.671875 -6.859375 -3.671875q-3.203125 0 -5.078125 2.0625q-1.859375 2.0625 -2.390625 7.140625l-0.265625 1.453125q-0.265625 5.734375 -2.796875 8.40625q-2.53125 2.671875 -6.265625 2.671875q-3.46875 0 -5.734375 -2.125q-2.265625 -2.140625 -2.265625 -5.75q0 -5.46875 3.796875 -9.1875q3.796875 -3.734375 10.0625 -5.59375q6.265625 -1.875 13.609375 -1.875q11.859375 0 18.328125 5.796875q6.46875 5.796875 6.46875 18.859375l0 29.46875q0 6.0 5.59375 6.0l2.9375 0l1.203125 1.0625q-2.546875 3.203125 -5.546875 4.9375q-3.0 1.734375 -8.453125 1.734375q-5.875 0 -9.28125 -2.734375q-3.390625 -2.734375 -4.453125 -7.265625q-4.0 4.265625 -8.203125 7.265625q-4.203125 3.0 -10.875 3.0zm8.140625 -8.140625q2.671875 0 5.0 -1.265625q2.328125 -1.265625 5.53125 -3.921875l0 -22.40625q-1.328125 0.265625 -2.671875 0.53125q-1.328125 0.265625 -3.0625 0.53125q-6.125 1.609375 -9.796875 5.40625q-3.671875 3.796875 -3.671875 10.203125q0 5.46875 2.53125 8.203125q2.546875 2.71875 6.140625 2.71875zm41.203613 6.140625l0 -1.328125l2.0 -0.53125q2.65625 -0.8125 3.65625 -2.40625q1.0 -1.59375 1.0 -4.140625l0 -41.71875q0 -2.9375 -1.0 -4.328125q-1.0 -1.40625 -3.65625 -1.9375l-2.0 -0.546875l0 -1.328125l22.921875 -7.734375l1.34375 1.328125l1.1875 11.46875l0 1.078125q1.875 -3.734375 4.875 -6.859375q3.0 -3.140625 6.65625 -5.140625q3.671875 -2.0 7.28125 -2.0q5.0625 0 7.7187195 2.796875q2.671875 2.796875 2.671875 7.0625q0 4.53125 -2.609375 7.0q-2.5937195 2.46875 -6.1874695 2.46875q-5.59375 0 -9.859375 -5.59375l-0.265625 -0.28125q-1.34375 -1.859375 -3.078125 -2.0625q-1.734375 -0.203125 -3.203125 1.671875q-1.328125 1.203125 -2.203125 2.875q-0.859375 1.65625 -1.65625 3.796875l0 37.1875q0 5.34375 4.671875 6.671875l4.265625 1.203125l0 1.328125l-34.53125 0zm56.263336 0l0 -1.328125l2.0 -0.671875q4.53125 -1.46875 4.53125 -6.53125l0 -71.328125q0 -2.671875 -1.078125 -4.0q-1.0625 -1.34375 -3.71875 -2.140625l-1.734375 -0.390625l0 -1.34375l24.390625 -5.734375l1.609375 1.203125l-0.40625 18.671875l0 65.0625q0 5.328125 4.40625 6.671875l1.859375 0.53125l0 1.328125l-31.859375 0zm49.453125 0l-23.71875 -33.328125l24.65625 -22.796875q1.734375 -1.609375 2.0625 -3.40625q0.34375 -1.796875 -2.328125 -2.59375l-2.265625 -0.671875l0 -1.328125l19.859375 0l0 1.328125l-3.984375 1.0625q-2.9375 0.9375 -4.75 2.203125q-1.796875 1.265625 -4.328125 3.53125l-14.921875 14.0l23.859375 33.203125q2.125 2.9375 3.984375 4.53125q1.875 1.59375 4.8125 2.671875l0.53125 0.265625l0 1.328125l-23.46875 0z" fill-rule="nonzero"/><path fill="#980000" d="m306.94583 31.063448l0 0c0 -4.4686375 3.6225586 -8.091185 8.091187 -8.091185l21.922485 0l0 0c2.1459045 0 4.2039185 0.85246277 5.7213135 2.369854c1.517395 1.5173912 2.369873 3.5754147 2.369873 5.7213306l0 28.026419c0 4.4686394 -3.6225586 8.091187 -8.091187 8.091187l-21.922485 0c-4.468628 0 -8.091187 -3.6225471 -8.091187 -8.091187z" fill-rule="evenodd"/><path fill="#980000" d="m306.94583 53.13911l0 44.20879l36.04651 -44.20879z" fill-rule="evenodd"/><path fill="#980000" d="m345.05927 53.13911l0 44.20879l-36.04654 -44.20879z" fill-rule="evenodd"/><path fill="#980000" d="m345.0613 31.063448l0 0c0 -4.4686375 3.6225586 -8.091185 8.091187 -8.091185l21.922485 0l0 0c2.1459045 0 4.203949 0.85246277 5.721344 2.369854c1.5173645 1.5173912 2.3698425 3.5754147 2.3698425 5.7213306l0 28.026419c0 4.4686394 -3.6225586 8.091187 -8.091187 8.091187l-21.922485 0c-4.468628 0 -8.091187 -3.6225471 -8.091187 -8.091187z" fill-rule="evenodd"/><path fill="#980000" d="m345.0613 53.13911l0 44.20879l36.04651 -44.20879z" fill-rule="evenodd"/><path fill="#980000" d="m383.17474 53.13911l0 44.20879l-36.04651 -44.20879z" fill-rule="evenodd"/><path fill="#980000" d="m334.06036 31.700787l21.322845 0l0 50.99213l-21.322845 0z" fill-rule="evenodd"/><path fill="#980000" d="m334.39633 73.70079l11.007874 23.653542l11.007874 -23.653542z" fill-rule="evenodd"/></g></svg>